<?xml version="1.0" encoding="UTF-8"?>
<svg width="53px" height="53px" viewBox="0 0 53 53" version="1.1" xmlns="http://www.w3.org/2000/svg" xmlns:xlink="http://www.w3.org/1999/xlink">
    <!-- Generator: Sketch 52.6 (67491) - http://www.bohemiancoding.com/sketch -->
    <title>instagram</title>
    <desc>Created with Sketch.</desc>
    <g id="Principal" stroke="none" stroke-width="1" fill="none" fill-rule="evenodd">
        <g id="Contact" transform="translate(-259.000000, -422.000000)" fill="#F5F5F5">
            <g id="instagram" transform="translate(259.000000, 422.000000)">
                <path d="M38.6795449,0 L14.3204551,0 C6.42417969,0 0,6.42417969 0,14.3204551 L0,38.6795449 C0,46.5758203 6.42417969,53 14.3204551,53 L38.6795449,53 C46.5758203,53 53,46.5758203 53,38.6795449 L53,14.3204551 C53,6.42417969 46.5758203,0 38.6795449,0 Z M48.7181797,38.6795449 C48.7181797,44.2148359 44.2149395,48.7181797 38.6795449,48.7181797 L14.3204551,48.7181797 C8.78516406,48.7181797 4.28182031,44.2149395 4.28182031,38.6795449 L4.28182031,14.3204551 C4.28182031,8.78516406 8.78506055,4.28182031 14.3204551,4.28182031 L38.6795449,4.28182031 C44.2148359,4.28182031 48.7181797,8.78506055 48.7181797,14.3204551 L48.7181797,38.6795449 Z" id="Shape" fill-rule="nonzero"></path>
                <path d="M38.8677623,24.238834 C38.4873853,21.6734232 37.3170991,19.3482812 35.4834521,17.5144415 C33.6498051,15.6807062 31.3249076,14.5101925 28.7598709,14.12988 C27.5919882,13.9567067 26.407908,13.9567067 25.2401298,14.12988 C22.0700429,14.6000712 19.2729136,16.2766231 17.3638182,18.8508128 C15.4547229,21.4250025 14.6620966,24.588734 15.1322384,27.7589451 C15.6023802,30.9292608 17.2787559,33.7266842 19.852675,35.6360847 C21.9422404,37.1860749 24.4199158,38 26.974607,38 C27.5668039,38 28.1632851,37.9563148 28.7597664,37.8677947 C31.9298533,37.3976035 34.7269826,35.7210515 36.636078,33.1468618 C38.5452778,30.5727766 39.3379041,27.4091496 38.8677623,24.238834 Z M28.1257699,33.5915525 C26.0979635,33.8927508 24.074337,33.385354 22.4277436,32.1639438 C20.7811501,30.9425336 19.7087796,29.1529016 19.4081355,27.124882 C19.1073869,25.0968624 19.6143124,23.0730232 20.8355942,21.4262567 C22.0569805,19.7794901 23.8463198,18.7070069 25.8742308,18.4062266 C26.2477108,18.3508362 26.6238033,18.3231411 26.9998958,18.3231411 C27.3759884,18.3231411 27.7521854,18.3508362 28.1256654,18.4063311 C31.4937782,18.9057852 34.0923591,21.5045348 34.5918652,24.8731062 C35.2125903,29.0595741 32.3120067,32.9707622 28.1257699,33.5915525 Z" id="Shape" fill-rule="nonzero"></path>
                <path d="M41.2677561,11.7322439 C40.8021564,11.266765 40.1577866,11 39.5,11 C38.8422134,11 38.1978436,11.2666441 37.7322439,11.7322439 C37.266765,12.1978436 37,12.8411256 37,13.5 C37,14.1588744 37.266765,14.8021564 37.7322439,15.2677561 C38.1978436,15.733235 38.8422134,16 39.5,16 C40.1577866,16 40.8021564,15.7333559 41.2677561,15.2677561 C41.733235,14.8021564 42,14.1577866 42,13.5 C42,12.8420925 41.733235,12.1977228 41.2677561,11.7322439 Z" id="Path"></path>
            </g>
        </g>
    </g>
</svg>