<?xml version="1.0" encoding="UTF-8"?>
<svg width="682px" height="142px" viewBox="0 0 682 142" version="1.1" xmlns="http://www.w3.org/2000/svg" xmlns:xlink="http://www.w3.org/1999/xlink">
    <!-- Generator: Sketch 52.6 (67491) - http://www.bohemiancoding.com/sketch -->
    <title>Group 10</title>
    <desc>Created with Sketch.</desc>
    <g id="Principal" stroke="none" stroke-width="1" fill="none" fill-rule="evenodd">
        <g id="Contact" transform="translate(-739.000000, -100.000000)">
            <g id="Group-10" transform="translate(739.000000, 101.000000)">
                <g id="Group-226-Copy" transform="translate(341.500000, 70.000000) rotate(-15.000000) translate(-341.500000, -70.000000) translate(303.000000, 46.000000)" stroke="#1F1F1F" stroke-linecap="round" stroke-linejoin="round" stroke-width="3">
                    <path d="M76.9659258,42.2231048 C76.9659258,45.002819 74.5339258,47.258819 71.5373544,47.258819 L6.39449725,47.258819 C3.39792583,47.258819 0.965925826,45.002819 0.965925826,42.2231048 L0.965925826,5.29453333 C0.965925826,2.5114619 3.39792583,0.258819045 6.39449725,0.258819045 L71.5373544,0.258819045 C74.5339258,0.258819045 76.9659258,2.5114619 76.9659258,5.29453333 L76.9659258,42.2231048 L76.9659258,42.2231048 Z" id="Stroke-406"></path>
                    <polyline id="Stroke-407" points="75.8287704 2.10910969 39.3287704 31.1091097 2.8287704 2.10910969"></polyline>
                </g>
                <g id="Group-7" transform="translate(432.000000, 15.000000)">
                    <g id="Group-5-Copy-3" fill="#1F1F1F">
                        <g id="Group-4">
                            <circle id="Oval" cx="2.5" cy="2.5" r="2.5"></circle>
                            <circle id="Oval-Copy-2" cx="37.5" cy="2.5" r="2.5"></circle>
                            <circle id="Oval-Copy-3" cx="72.5" cy="2.5" r="2.5"></circle>
                            <circle id="Oval-Copy-4" cx="107.5" cy="2.5" r="2.5"></circle>
                        </g>
                        <g id="Group-4-Copy" transform="translate(0.000000, 35.000000)">
                            <circle id="Oval" cx="2.5" cy="2.5" r="2.5"></circle>
                            <circle id="Oval-Copy-2" cx="37.5" cy="2.5" r="2.5"></circle>
                            <circle id="Oval-Copy-3" cx="72.5" cy="2.5" r="2.5"></circle>
                            <circle id="Oval-Copy-4" cx="107.5" cy="2.5" r="2.5"></circle>
                        </g>
                        <g id="Group-4-Copy-2" transform="translate(0.000000, 70.000000)">
                            <circle id="Oval" cx="2.5" cy="2.5" r="2.5"></circle>
                            <circle id="Oval-Copy-2" cx="37.5" cy="2.5" r="2.5"></circle>
                            <circle id="Oval-Copy-3" cx="72.5" cy="2.5" r="2.5"></circle>
                            <circle id="Oval-Copy-4" cx="107.5" cy="2.5" r="2.5"></circle>
                        </g>
                        <g id="Group-4-Copy-3" transform="translate(0.000000, 105.000000)">
                            <circle id="Oval" cx="2.5" cy="2.5" r="2.5"></circle>
                            <circle id="Oval-Copy-2" cx="37.5" cy="2.5" r="2.5"></circle>
                            <circle id="Oval-Copy-3" cx="72.5" cy="2.5" r="2.5"></circle>
                            <circle id="Oval-Copy-4" cx="107.5" cy="2.5" r="2.5"></circle>
                        </g>
                    </g>
                    <g id="Group-5-Copy-4" transform="translate(140.000000, 0.000000)" fill="#1F1F1F">
                        <g id="Group-4">
                            <circle id="Oval" cx="2.5" cy="2.5" r="2.5"></circle>
                            <circle id="Oval-Copy-2" cx="37.5" cy="2.5" r="2.5"></circle>
                            <circle id="Oval-Copy-3" cx="72.5" cy="2.5" r="2.5"></circle>
                            <circle id="Oval-Copy-4" cx="107.5" cy="2.5" r="2.5"></circle>
                        </g>
                        <g id="Group-4-Copy" transform="translate(0.000000, 35.000000)">
                            <circle id="Oval" cx="2.5" cy="2.5" r="2.5"></circle>
                            <circle id="Oval-Copy-2" cx="37.5" cy="2.5" r="2.5"></circle>
                            <circle id="Oval-Copy-3" cx="72.5" cy="2.5" r="2.5"></circle>
                            <circle id="Oval-Copy-4" cx="107.5" cy="2.5" r="2.5"></circle>
                        </g>
                        <g id="Group-4-Copy-2" transform="translate(0.000000, 70.000000)">
                            <circle id="Oval" cx="2.5" cy="2.5" r="2.5"></circle>
                            <circle id="Oval-Copy-2" cx="37.5" cy="2.5" r="2.5"></circle>
                            <circle id="Oval-Copy-3" cx="72.5" cy="2.5" r="2.5"></circle>
                            <circle id="Oval-Copy-4" cx="107.5" cy="2.5" r="2.5"></circle>
                        </g>
                        <g id="Group-4-Copy-3" transform="translate(0.000000, 105.000000)">
                            <circle id="Oval" cx="2.5" cy="2.5" r="2.5"></circle>
                            <circle id="Oval-Copy-2" cx="37.5" cy="2.5" r="2.5"></circle>
                            <circle id="Oval-Copy-3" cx="72.5" cy="2.5" r="2.5"></circle>
                            <circle id="Oval-Copy-4" cx="107.5" cy="2.5" r="2.5"></circle>
                        </g>
                    </g>
                    <polyline id="Path-2-Copy" stroke="#C94242" stroke-width="2" points="3 72.4345543 37.8923432 37 72.5923378 72.4345543 107.478623 37 142.969216 72.4345543 177.628317 37 212.761475 72.4345543 247.684109 37"></polyline>
                </g>
                <g id="Group-6" transform="translate(0.000000, 15.000000)">
                    <g id="Group-5" fill="#1F1F1F">
                        <g id="Group-4">
                            <circle id="Oval" cx="2.5" cy="2.5" r="2.5"></circle>
                            <circle id="Oval-Copy-2" cx="37.5" cy="2.5" r="2.5"></circle>
                            <circle id="Oval-Copy-3" cx="72.5" cy="2.5" r="2.5"></circle>
                            <circle id="Oval-Copy-4" cx="107.5" cy="2.5" r="2.5"></circle>
                        </g>
                        <g id="Group-4-Copy" transform="translate(0.000000, 35.000000)">
                            <circle id="Oval" cx="2.5" cy="2.5" r="2.5"></circle>
                            <circle id="Oval-Copy-2" cx="37.5" cy="2.5" r="2.5"></circle>
                            <circle id="Oval-Copy-3" cx="72.5" cy="2.5" r="2.5"></circle>
                            <circle id="Oval-Copy-4" cx="107.5" cy="2.5" r="2.5"></circle>
                        </g>
                        <g id="Group-4-Copy-2" transform="translate(0.000000, 70.000000)">
                            <circle id="Oval" cx="2.5" cy="2.5" r="2.5"></circle>
                            <circle id="Oval-Copy-2" cx="37.5" cy="2.5" r="2.5"></circle>
                            <circle id="Oval-Copy-3" cx="72.5" cy="2.5" r="2.5"></circle>
                            <circle id="Oval-Copy-4" cx="107.5" cy="2.5" r="2.5"></circle>
                        </g>
                        <g id="Group-4-Copy-3" transform="translate(0.000000, 105.000000)">
                            <circle id="Oval" cx="2.5" cy="2.5" r="2.5"></circle>
                            <circle id="Oval-Copy-2" cx="37.5" cy="2.5" r="2.5"></circle>
                            <circle id="Oval-Copy-3" cx="72.5" cy="2.5" r="2.5"></circle>
                            <circle id="Oval-Copy-4" cx="107.5" cy="2.5" r="2.5"></circle>
                        </g>
                    </g>
                    <g id="Group-5-Copy-2" transform="translate(140.000000, 0.000000)" fill="#1F1F1F">
                        <g id="Group-4">
                            <circle id="Oval" cx="2.5" cy="2.5" r="2.5"></circle>
                            <circle id="Oval-Copy-2" cx="37.5" cy="2.5" r="2.5"></circle>
                            <circle id="Oval-Copy-3" cx="72.5" cy="2.5" r="2.5"></circle>
                            <circle id="Oval-Copy-4" cx="107.5" cy="2.5" r="2.5"></circle>
                        </g>
                        <g id="Group-4-Copy" transform="translate(0.000000, 35.000000)">
                            <circle id="Oval" cx="2.5" cy="2.5" r="2.5"></circle>
                            <circle id="Oval-Copy-2" cx="37.5" cy="2.5" r="2.5"></circle>
                            <circle id="Oval-Copy-3" cx="72.5" cy="2.5" r="2.5"></circle>
                            <circle id="Oval-Copy-4" cx="107.5" cy="2.5" r="2.5"></circle>
                        </g>
                        <g id="Group-4-Copy-2" transform="translate(0.000000, 70.000000)">
                            <circle id="Oval" cx="2.5" cy="2.5" r="2.5"></circle>
                            <circle id="Oval-Copy-2" cx="37.5" cy="2.5" r="2.5"></circle>
                            <circle id="Oval-Copy-3" cx="72.5" cy="2.5" r="2.5"></circle>
                            <circle id="Oval-Copy-4" cx="107.5" cy="2.5" r="2.5"></circle>
                        </g>
                        <g id="Group-4-Copy-3" transform="translate(0.000000, 105.000000)">
                            <circle id="Oval" cx="2.5" cy="2.5" r="2.5"></circle>
                            <circle id="Oval-Copy-2" cx="37.5" cy="2.5" r="2.5"></circle>
                            <circle id="Oval-Copy-3" cx="72.5" cy="2.5" r="2.5"></circle>
                            <circle id="Oval-Copy-4" cx="107.5" cy="2.5" r="2.5"></circle>
                        </g>
                    </g>
                    <polyline id="Path-2" stroke="#C94242" stroke-width="2" points="3 73.4345543 37.8923432 38 72.5923378 73.4345543 107.478623 38 142.969216 73.4345543 177.628317 38 212.761475 73.4345543 247.684109 38"></polyline>
                </g>
                <circle id="Oval" stroke="#979797" stroke-width="2" cx="341" cy="70" r="70"></circle>
            </g>
        </g>
    </g>
</svg>