<?xml version="1.0" encoding="UTF-8"?>
<svg width="110px" height="110px" viewBox="0 0 110 110" version="1.1" xmlns="http://www.w3.org/2000/svg" xmlns:xlink="http://www.w3.org/1999/xlink">
    <!-- Generator: Sketch 52.6 (67491) - http://www.bohemiancoding.com/sketch -->
    <title>Group 5 Copy</title>
    <desc>Created with Sketch.</desc>
    <g id="Principal" stroke="none" stroke-width="1" fill="none" fill-rule="evenodd">
        <g id="Contact" transform="translate(-569.000000, -638.000000)" fill="#F5F5F5">
            <g id="Group-5-Copy" transform="translate(569.000000, 638.000000)">
                <g id="Group-4">
                    <circle id="Oval" cx="2.5" cy="2.5" r="2.5"></circle>
                    <circle id="Oval-Copy-2" cx="37.5" cy="2.5" r="2.5"></circle>
                    <circle id="Oval-Copy-3" cx="72.5" cy="2.5" r="2.5"></circle>
                    <circle id="Oval-Copy-4" cx="107.5" cy="2.5" r="2.5"></circle>
                </g>
                <g id="Group-4-Copy" transform="translate(0.000000, 35.000000)">
                    <circle id="Oval" cx="2.5" cy="2.5" r="2.5"></circle>
                    <circle id="Oval-Copy-2" cx="37.5" cy="2.5" r="2.5"></circle>
                    <circle id="Oval-Copy-3" cx="72.5" cy="2.5" r="2.5"></circle>
                    <circle id="Oval-Copy-4" cx="107.5" cy="2.5" r="2.5"></circle>
                </g>
                <g id="Group-4-Copy-2" transform="translate(0.000000, 70.000000)">
                    <circle id="Oval" cx="2.5" cy="2.5" r="2.5"></circle>
                    <circle id="Oval-Copy-2" cx="37.5" cy="2.5" r="2.5"></circle>
                    <circle id="Oval-Copy-3" cx="72.5" cy="2.5" r="2.5"></circle>
                    <circle id="Oval-Copy-4" cx="107.5" cy="2.5" r="2.5"></circle>
                </g>
                <g id="Group-4-Copy-3" transform="translate(0.000000, 105.000000)">
                    <circle id="Oval" cx="2.5" cy="2.5" r="2.5"></circle>
                    <circle id="Oval-Copy-2" cx="37.5" cy="2.5" r="2.5"></circle>
                    <circle id="Oval-Copy-3" cx="72.5" cy="2.5" r="2.5"></circle>
                    <circle id="Oval-Copy-4" cx="107.5" cy="2.5" r="2.5"></circle>
                </g>
            </g>
        </g>
    </g>
</svg>